HIERARCHY
ROOT Hips
{
	OFFSET -3.958830 18.904000 13.208200
	CHANNELS 6 Xposition Yposition Zposition Zrotation Yrotation Xrotation 
	JOINT LHipJoint
	{
		OFFSET 0.000000 0.000000 0.000000
		CHANNELS 3 Zrotation Yrotation Xrotation
		JOINT LeftUpLeg
		{
			OFFSET 1.800000 -1.400000 0.085000
			CHANNELS 3 Zrotation Yrotation Xrotation
			JOINT LeftLeg
			{
				OFFSET 2.215000 -6.000000 0.000000
				CHANNELS 3 Zrotation Yrotation Xrotation
				JOINT LeftFoot
				{
					OFFSET 2.500000 -6.900000 0.000000
					CHANNELS 3 Zrotation Yrotation Xrotation
					JOINT LeftToeBase
					{
						OFFSET 0.200000 -0.500000 1.950000
						CHANNELS 3 Zrotation Yrotation Xrotation
						End Site
						{
							OFFSET 0.000000 0.000000 0.000000
						}
					}
				}
			}
		}
	}
	JOINT RHipJoint
	{
		OFFSET 0.000000 0.000000 0.000000
		CHANNELS 3 Zrotation Yrotation Xrotation
		JOINT RightUpLeg
		{
			OFFSET -1.800000 -1.400000 0.085000
			CHANNELS 3 Zrotation Yrotation Xrotation
			JOINT RightLeg
			{
				OFFSET -2.215000 -6.000000 0.000000
				CHANNELS 3 Zrotation Yrotation Xrotation
				JOINT RightFoot
				{
					OFFSET -2.500000 -6.900000 0.000000
					CHANNELS 3 Zrotation Yrotation Xrotation
					JOINT RightToeBase
					{
						OFFSET -0.200000 -0.500000 1.950000
						CHANNELS 3 Zrotation Yrotation Xrotation
						End Site
						{
							OFFSET 0.000000 0.000000 0.000000
						}
					}
				}
			}
		}
	}
	JOINT LowerBack
	{
		OFFSET 0.000000 0.000000 0.000000
		CHANNELS 3 Zrotation Yrotation Xrotation
		JOINT Spine
		{
			OFFSET -0.087000 1.940000 -0.288900
			CHANNELS 3 Zrotation Yrotation Xrotation
			JOINT Spine1
			{
				OFFSET 0.000000 1.950000 0.060000
				CHANNELS 3 Zrotation Yrotation Xrotation
				JOINT Neck
				{
					OFFSET 0.000000 0.000000 0.000000
					CHANNELS 3 Zrotation Yrotation Xrotation
					JOINT Neck1
					{
						OFFSET 0.000000 1.600000 0.340000
						CHANNELS 3 Zrotation Yrotation Xrotation
						JOINT Head
						{
							OFFSET 0.000000 1.667000 -0.240000
							CHANNELS 3 Zrotation Yrotation Xrotation
							End Site
							{
								OFFSET 0.000000 0.000000 0.000000
							}
						}
					}
				}
				JOINT LeftShoulder
				{
					OFFSET 0.000000 0.000000 0.000000
					CHANNELS 3 Zrotation Yrotation Xrotation
					JOINT LeftArm
					{
						OFFSET 2.700000 1.550000 -0.730000
						CHANNELS 3 Zrotation Yrotation Xrotation
						JOINT LeftForeArm
						{
							OFFSET 5.450000 0.000000 0.000000
							CHANNELS 3 Zrotation Yrotation Xrotation
							JOINT LeftHand
							{
								OFFSET 3.450000 0.000000 0.000000
								CHANNELS 3 Zrotation Yrotation Xrotation
								JOINT LeftHandIndex1
								{
									OFFSET 0.750000 0.000000 0.000000
									CHANNELS 3 Zrotation Yrotation Xrotation
									End Site
									{
										OFFSET 0.000000 0.000000 0.000000
									}
								}
							}
						}
					}
				}
				JOINT RightShoulder
				{
					OFFSET 0.000000 0.000000 0.000000
					CHANNELS 3 Zrotation Yrotation Xrotation
					JOINT RightArm
					{
						OFFSET -2.700000 1.550000 -0.730000
						CHANNELS 3 Zrotation Yrotation Xrotation
						JOINT RightForeArm
						{
							OFFSET -5.450000 0.000000 0.000000
							CHANNELS 3 Zrotation Yrotation Xrotation
							JOINT RightHand
							{
								OFFSET -3.450000 0.000000 0.000000
								CHANNELS 3 Zrotation Yrotation Xrotation
								JOINT RightHandIndex1
								{
									OFFSET -0.750000 0.000000 0.000000
									CHANNELS 3 Zrotation Yrotation Xrotation
									End Site
									{
										OFFSET 0.000000 0.000000 0.000000
									}
								}
							}
						}
					}
				}
			}
		}
	}
}
MOTION
Frames: 8
Frame Time: 0.016667
-12.537540 16.331900 14.110820 -9.908339 54.762234 -11.978550 -15.399018 12.053159 4.650387 6.395516 -7.684611 -35.969873 -8.374564 9.335389 35.137487 -0.632611 6.554291 1.961842 0.415390 0.310180 0.318450 17.951079 -11.646861 1.936728 -15.576401 -0.493434 -0.537041 2.322408 -6.572121 19.098163 -0.640260 -4.755911 2.501857 0.305750 0.130200 0.191030 -5.358672 0.187776 -8.511187 15.483358 2.781760 17.941208 -8.239290 8.540494 20.385297 0.676857 -5.859565 -21.793204 -13.673333 10.002695 39.669659 1.533070 6.794760 -23.355050 -9.467255 -37.784455 7.484785 -12.698333 -22.892058 -6.253121 30.126659 -12.836422 -6.790422 -3.907552 2.794783 0.803950 -0.076020 0.233260 0.014920 9.392601 43.867276 14.856885 34.574429 38.611486 5.014747 -2.252657 16.181922 -0.208766 2.054381 -0.978547 -0.314060 0.432390 0.186500 -0.227830 
-12.320110 16.446070 14.022180 -7.698001 52.234083 -9.482192 -15.293049 12.057139 4.101671 3.330335 -6.373448 -32.265338 -7.818878 8.187162 30.202606 -0.636028 5.384620 2.397387 0.478870 0.445780 0.245350 18.022694 -11.893315 2.130912 -17.208040 -0.084935 -1.231641 2.642696 -6.126690 15.755687 -0.597567 -4.708638 2.537378 0.346130 0.139310 0.223530 -5.632090 0.801909 -8.378795 16.551161 5.109719 15.374421 -8.230580 10.200911 21.402240 0.699841 -5.281940 -20.844308 -11.917254 7.934292 40.001519 3.544300 4.639020 -20.287680 -7.361803 -36.786828 6.959206 -14.224680 -25.311228 -4.839450 32.300244 -5.622099 -5.699081 -3.976085 3.021941 0.644890 -0.044190 0.209030 0.088200 7.102649 43.076122 15.193350 33.937376 40.129418 3.834685 -3.338362 22.291931 -0.873807 1.942840 -1.167248 -0.187650 0.333380 0.114820 -0.125820 
-12.085830 16.596110 13.916920 -7.074782 50.456075 -8.497416 -15.148899 11.929258 3.459362 1.075305 -4.991485 -27.589191 -6.969975 6.829511 24.765958 -0.832683 4.399399 2.850289 0.417330 0.476580 0.093290 18.215675 -12.061186 2.341661 -17.188402 -0.052167 -1.150415 2.640963 -5.625614 11.786058 -0.546504 -4.704780 2.619852 0.427170 0.312460 0.140750 -6.210047 1.592699 -8.162773 19.702827 5.643041 12.717051 -9.345589 10.618233 23.512052 0.846722 -6.079812 -19.703949 -12.589250 6.503938 38.394614 4.370470 1.902690 -19.540480 -5.710681 -35.567875 6.554521 -16.302344 -26.635183 -3.955913 34.519249 0.225540 -4.775987 -4.130590 2.957951 0.543970 0.051150 0.103430 0.130100 5.283092 42.627106 14.851751 30.487550 43.561713 3.701811 -2.246709 26.834640 -0.612099 1.789249 -1.049638 -0.260880 0.511050 0.174380 -0.048880 
-11.915600 16.727470 13.786430 -8.061880 51.625548 -7.951638 -15.129874 11.720537 3.180877 -0.643012 -4.356910 -25.059396 -6.684620 5.457392 18.529174 -0.972792 3.559885 3.236057 0.325260 0.383280 -0.025530 18.313151 -12.114864 2.442925 -14.708320 -0.192557 -2.021145 2.264389 -5.150022 9.564400 -0.462497 -4.587678 2.706414 0.408480 0.462770 0.145140 -6.548285 2.254820 -7.996853 22.185161 5.884907 10.750132 -10.312015 10.385181 22.860793 1.075734 -5.661986 -17.681495 -10.768904 5.215462 36.579907 5.290140 0.064080 -17.530990 -4.150676 -33.347960 6.923369 -17.006218 -25.781132 -3.022798 35.096944 -2.148630 -5.238102 -4.171085 2.929825 0.456390 0.149760 -0.009560 0.133060 3.153885 40.172346 12.902845 30.634275 44.477303 2.961793 -1.286671 34.150140 -0.561708 1.615626 -1.076696 -0.297930 0.557560 0.255230 -0.003070 
-11.759680 16.848160 13.637320 -10.618901 54.879096 -8.281541 -15.223759 11.594247 3.103236 -2.430470 -4.174755 -23.833736 -5.252911 4.066153 13.130804 -1.106329 2.937850 3.553755 0.220060 0.219290 -0.086400 18.292605 -11.942752 2.593077 -11.453638 -0.363614 -2.877282 4.235888 -5.099783 7.541900 -0.408111 -4.482684 2.769531 0.349380 0.551540 0.139580 -6.717021 2.399065 -7.968209 25.168890 4.997587 8.896791 -12.064160 9.056331 20.898606 2.182614 -4.973329 -16.735460 -9.323495 3.688147 35.822994 4.055920 -1.325860 -15.451870 -3.120485 -32.788267 7.440462 -17.528830 -26.232257 -1.731158 35.123320 2.071548 -3.817508 -4.286484 2.916813 0.446700 0.208620 -0.092420 0.128080 -0.310035 38.615040 11.243684 31.953313 44.964083 2.179318 -1.620378 42.122060 -0.926130 1.449559 -1.119305 -0.374560 0.583440 0.315790 -0.015660 
-11.617660 16.986790 13.495600 -12.217078 58.065568 -9.190740 -15.334658 11.464971 2.998849 -3.481497 -3.574649 -21.408293 -4.978528 3.311703 8.013371 -1.074159 2.573426 3.690370 0.244320 0.246590 -0.113230 18.252387 -11.784626 2.758530 -8.382098 -0.666503 -2.529417 5.551921 -4.899833 5.192521 -0.443219 -4.458142 2.765188 0.343260 0.514950 0.157760 -6.883256 2.585538 -8.048775 26.949640 4.032197 8.340203 -12.343844 7.803649 20.455495 2.487625 -5.164176 -16.224553 -9.194878 2.559511 34.908914 5.114840 -3.103950 -15.314920 -1.970182 -31.788338 8.543395 -16.962946 -23.738008 -1.076239 33.418144 1.966617 -3.224527 -4.227273 3.031337 0.403900 0.174750 -0.095890 0.139870 -1.960425 37.738155 9.514562 28.304786 44.843579 0.494900 -2.293611 47.615892 -1.031920 1.402683 -1.205557 -0.311420 0.505040 0.296470 0.019100 
-11.467930 17.115880 13.350470 -16.717377 58.719433 -12.752857 -15.421247 11.530001 2.870179 -1.979170 -2.698651 -20.111419 -4.481161 2.966308 4.750691 -1.026290 2.501225 3.765278 0.138540 0.112540 -0.145400 18.179099 -11.690693 2.923208 -4.385176 -0.777147 -3.425123 7.725015 -5.005195 4.777655 -0.436101 -4.261830 2.872293 0.233350 0.516930 0.118610 -7.046222 2.818151 -8.223666 31.560009 3.055761 8.768881 -14.433268 7.468418 18.877186 3.870424 -5.007300 -16.900046 -8.865676 1.898020 36.463251 4.873770 -3.666790 -15.226000 -2.213407 -31.495009 10.346531 -15.635014 -18.732459 -1.648351 32.761225 -1.940220 -3.549623 -4.120756 2.919550 0.454290 0.147310 -0.086590 0.117550 -4.489829 37.573473 8.189577 25.314742 43.863809 -1.810632 -1.499389 53.528084 -0.733321 1.356736 -1.175080 -0.346730 0.530540 0.319050 0.009970 
-11.365910 17.181410 13.264890 -15.198617 59.956436 -9.826368 -15.405723 11.377943 2.998813 -2.353642 -2.804780 -20.444034 -6.656376 3.135759 3.268966 -0.962925 2.635805 3.755127 0.014580 -0.032210 -0.241670 18.196161 -11.601268 3.025728 -2.943284 -0.331773 -5.864635 9.290311 -4.788083 3.714129 -0.317162 -4.074395 2.950718 0.163210 0.605900 0.099230 -6.928852 2.778624 -8.341926 29.458618 4.022296 8.464135 -13.299544 7.805560 16.730797 3.682193 -4.593468 -16.290502 -7.588949 0.667401 34.844776 5.116690 -4.912340 -12.508030 -1.375442 -30.933047 10.656060 -14.731566 -18.347322 -0.694419 30.656579 -1.366029 -2.856950 -4.189415 2.896552 0.388740 0.200980 -0.176480 0.104080 -5.213444 36.984438 6.676592 23.335374 43.815027 -1.776357 -5.404713 56.872282 -2.790750 1.387749 -1.153946 -0.385940 0.531660 0.376100 0.033920 
